<?xml version="1.0" standalone="no"?>
<!DOCTYPE svg PUBLIC "-//W3C//DTD SVG 20010904//EN"
 "http://www.w3.org/TR/2001/REC-SVG-20010904/DTD/svg10.dtd">
<svg version="1.0" xmlns="http://www.w3.org/2000/svg"
 width="1000.000000pt" height="363.000000pt" viewBox="0 0 1000.000000 363.000000"
 preserveAspectRatio="xMidYMid meet">

<g transform="translate(0.000000,363.000000) scale(0.100000,-0.100000)"
fill="#000000" stroke="none">
<path d="M4215 3459 c-138 -89 -315 -203 -395 -254 -80 -52 -154 -101 -165
-109 -18 -14 31 -15 501 -16 l522 0 42 55 c24 31 69 80 101 110 33 29 55 57
49 60 -26 16 -118 36 -203 44 -106 10 -123 17 -161 62 -24 28 -26 38 -26 120
0 49 -3 89 -8 89 -4 0 -120 -72 -257 -161z"/>
<path d="M5211 3330 c-126 -31 -234 -92 -331 -190 -146 -145 -209 -287 -217
-485 -5 -121 10 -216 47 -303 l22 -51 39 19 c57 30 107 77 140 134 27 48 28
55 23 131 -16 207 105 393 309 473 36 14 104 17 487 22 l445 5 53 29 c81 45
142 134 142 206 l0 30 -542 -1 c-489 0 -550 -2 -617 -19z"/>
<path d="M5190 2901 c-30 -22 -71 -63 -90 -91 -34 -51 -34 -52 -35 -168 -1
-96 -5 -127 -24 -175 -46 -118 -157 -230 -271 -274 -39 -15 -100 -18 -485 -23
-432 -5 -441 -5 -490 -28 -27 -13 -65 -37 -84 -55 -41 -39 -81 -120 -81 -165
l0 -33 553 4 c616 4 598 2 752 77 146 72 255 181 330 330 58 116 70 170 70
325 0 130 -3 146 -30 225 -18 52 -36 86 -45 88 -9 1 -40 -15 -70 -37z"/>
<path d="M5297 2133 c-15 -21 -61 -73 -103 -115 l-77 -76 54 -17 c30 -9 101
-22 159 -29 119 -14 143 -24 170 -69 16 -25 20 -51 20 -119 0 -49 2 -88 4 -88
5 0 828 530 841 541 5 5 -227 9 -516 9 l-526 0 -26 -37z"/>
<path d="M5070 943 c0 -165 -3 -382 -7 -481 l-6 -182 91 0 92 0 0 270 c0 150
4 270 9 270 5 0 151 -131 324 -290 174 -160 318 -290 321 -290 4 0 6 216 6
480 l0 480 -90 0 -90 0 0 -275 c0 -151 -3 -275 -6 -275 -3 0 -139 125 -302
278 -164 152 -308 286 -320 296 l-22 19 0 -300z"/>
<path d="M4653 1203 c-10 -4 -13 -106 -13 -464 l0 -459 90 0 90 0 0 343 c0
189 -3 399 -7 465 l-6 122 -71 -1 c-39 0 -77 -3 -83 -6z"/>
<path d="M3824 858 c3 -183 9 -392 12 -464 l7 -131 161 4 c88 2 225 6 304 9
l142 6 0 85 0 85 -218 -7 -219 -7 -6 233 c-4 129 -7 288 -7 354 0 174 5 165
-98 165 l-85 0 7 -332z"/>
<path d="M6149 733 c-8 -252 -14 -460 -12 -462 1 -2 42 -6 92 -9 l89 -5 3 176
c4 167 5 178 26 199 29 29 20 38 178 -195 l126 -187 47 0 c26 0 78 -3 115 -7
l69 -6 -185 263 -185 264 196 200 196 201 -115 3 -114 3 -95 -98 c-52 -54
-129 -134 -171 -178 l-75 -81 4 188 5 188 -90 0 -90 0 -14 -457z"/>
<path d="M3394 1172 c-8 -5 -6 -125 7 -442 10 -239 18 -446 19 -459 0 -24 1
-24 86 -18 47 2 87 6 89 8 2 3 -19 558 -35 912 0 9 -151 9 -166 -1z"/>
<path d="M3080 1161 l-84 -6 -81 -250 c-45 -137 -84 -257 -87 -265 -6 -14 -28
29 -187 364 l-61 129 -100 -5 c-55 -3 -102 -7 -105 -9 -2 -3 101 -214 230
-469 226 -451 234 -464 245 -435 7 17 88 235 182 485 93 250 172 458 175 463
2 4 -6 6 -19 5 -13 -1 -61 -4 -108 -7z"/>
<path d="M7480 1111 c0 -14 -11 -206 -25 -425 -14 -220 -25 -416 -25 -436 l0
-37 82 -6 c45 -4 84 -4 87 -2 4 5 19 182 20 252 l1 31 138 4 c159 4 192 16
260 93 93 105 105 299 26 403 -66 85 -146 118 -329 132 -253 19 -235 20 -235
-9z m330 -170 c110 -22 146 -164 61 -245 -34 -33 -94 -43 -185 -32 l-56 7 5
52 c3 29 7 91 11 140 l6 87 56 0 c32 -1 77 -5 102 -9z"/>
<path d="M1735 1078 c-60 -5 -112 -11 -114 -14 -2 -2 11 -207 30 -456 l34
-453 82 0 c45 1 85 4 89 7 3 4 2 69 -4 145 -7 102 -7 140 2 145 6 4 34 8 63 8
l52 0 108 -138 108 -139 75 5 c145 8 144 -5 14 167 -63 83 -114 154 -114 158
0 5 13 19 29 33 17 14 43 51 58 82 24 50 28 69 28 147 0 112 -26 176 -93 235
-86 76 -181 90 -447 68z m316 -196 c49 -55 56 -122 20 -191 -19 -34 -69 -53
-157 -59 l-82 -5 -5 39 c-4 22 -9 85 -13 141 l-6 102 38 4 c22 3 70 4 108 3
63 -2 70 -4 97 -34z"/>
<path d="M8299 1078 c-3 -17 -76 -914 -74 -916 1 -1 41 -6 88 -10 l85 -8 6 56
c3 30 8 94 12 143 4 48 10 89 14 92 3 2 32 1 63 -2 l57 -6 82 -150 c51 -92 90
-152 103 -157 11 -4 60 -10 108 -14 l89 -6 -20 32 c-38 64 -162 306 -162 316
0 6 16 20 35 32 80 49 131 172 123 294 -6 84 -30 137 -86 188 -47 42 -61 50
-125 72 -48 16 -395 54 -398 44z m310 -197 c57 -11 91 -38 108 -86 19 -55 8
-110 -31 -152 -36 -40 -79 -49 -181 -38 l-67 7 6 76 c4 43 9 105 12 140 l6 62
52 0 c28 -1 71 -5 95 -9z"/>
<path d="M1057 1020 c-153 -16 -281 -31 -285 -34 -5 -6 76 -906 83 -914 2 -2
638 58 642 61 3 4 -16 160 -21 164 -3 3 -107 -5 -231 -17 -124 -12 -228 -20
-230 -18 -2 2 -7 47 -11 100 -8 115 -33 100 210 123 94 8 171 17 173 19 2 2 1
40 -3 85 -8 95 20 88 -231 63 l-172 -18 -5 36 c-3 19 -8 65 -12 101 l-6 65
184 18 c290 27 269 22 263 65 -2 20 -7 57 -10 84 -7 56 34 54 -338 17z"/>
<path d="M9435 969 c-170 -24 -335 -174 -379 -344 -72 -275 104 -544 385 -588
238 -37 473 123 529 362 8 33 11 86 7 137 -16 271 -269 472 -542 433z m178
-185 c59 -20 125 -83 157 -149 18 -39 24 -67 24 -125 1 -90 -13 -135 -63 -198
-84 -106 -223 -138 -343 -79 -107 53 -163 144 -162 267 1 213 190 351 387 284z"/>
<path d="M250 936 c-143 -32 -230 -128 -230 -256 0 -152 66 -219 283 -284 111
-34 157 -71 157 -126 0 -111 -161 -142 -342 -65 -15 6 -23 -5 -48 -60 -16 -37
-30 -70 -30 -75 0 -13 111 -50 185 -61 141 -21 290 22 360 104 70 81 80 187
29 294 -38 80 -80 105 -272 164 -125 38 -173 106 -122 172 45 58 143 61 301
11 12 -4 22 11 41 66 l26 71 -37 15 c-99 42 -202 52 -301 30z"/>
</g>
</svg>
