<svg width="1334" height="484" viewBox="0 0 1334 484" fill="none" xmlns="http://www.w3.org/2000/svg">
<path d="M562 22.8C543.6 34.6667 520 49.8667 509.333 56.6667C498.667 63.6 488.8 70.1333 487.333 71.2C484.933 73.0667 491.467 73.2 554.133 73.3333H623.733L629.333 66C632.533 61.8667 638.533 55.3333 642.8 51.3333C647.2 47.4667 650.133 43.7333 649.333 43.3333C645.867 41.2 633.6 38.5333 622.267 37.4667C608.133 36.1333 605.867 35.2 600.8 29.2C597.6 25.4667 597.333 24.1333 597.333 13.2C597.333 6.66667 596.933 1.33334 596.267 1.33334C595.733 1.33334 580.267 10.9333 562 22.8Z" fill="#FF5252"/>
<path d="M694.8 40C678 44.1333 663.6 52.2666 650.667 65.3333C631.2 84.6666 622.8 103.6 621.733 130C621.067 146.133 623.067 158.8 628 170.4L630.933 177.2L636.133 174.667C643.733 170.667 650.4 164.4 654.8 156.8C658.4 150.4 658.533 149.467 657.867 139.333C655.733 111.733 671.867 86.9333 699.067 76.2666C703.867 74.4 712.933 74 764 73.3333L823.333 72.6666L830.4 68.8C841.2 62.8 849.333 50.9333 849.333 41.3333V37.3333L777.067 37.4666C711.867 37.4666 703.733 37.7333 694.8 40Z" fill="#FF5252"/>
<path d="M692 97.2C688 100.133 682.533 105.6 680 109.333C675.467 116.133 675.467 116.267 675.333 131.733C675.2 144.533 674.667 148.667 672.133 155.067C666 170.8 651.2 185.733 636 191.6C630.8 193.6 622.667 194 571.333 194.667C513.733 195.333 512.533 195.333 506 198.4C502.4 200.133 497.333 203.333 494.8 205.733C489.333 210.933 484 221.733 484 227.733V232.133L557.733 231.6C639.867 231.067 637.467 231.333 658 221.333C677.467 211.733 692 197.2 702 177.333C709.733 161.867 711.333 154.667 711.333 134C711.333 116.667 710.933 114.533 707.333 104C704.933 97.0667 702.533 92.5334 701.333 92.2667C700.133 92.1334 696 94.2667 692 97.2Z" fill="#FF5252"/>
<path d="M706.267 199.6C704.267 202.4 698.133 209.333 692.533 214.933L682.267 225.067L689.467 227.333C693.467 228.533 702.933 230.267 710.667 231.2C726.533 233.067 729.733 234.4 733.333 240.4C735.467 243.733 736 247.2 736 256.267C736 262.8 736.267 268 736.533 268C737.2 268 846.933 197.333 848.667 195.867C849.333 195.2 818.4 194.667 779.867 194.667H709.733L706.267 199.6Z" fill="#FF5252"/>
<path d="M676 358.267C676 380.267 675.6 409.2 675.067 422.4L674.267 446.667H686.4H698.667V410.667C698.667 390.667 699.2 374.667 699.867 374.667C700.533 374.667 720 392.133 743.067 413.333C766.267 434.667 785.467 452 785.867 452C786.4 452 786.667 423.2 786.667 388V324H774.667H762.667V360.667C762.667 380.8 762.267 397.333 761.867 397.333C761.467 397.333 743.333 380.667 721.6 360.267C699.733 340 680.533 322.133 678.933 320.8L676 318.267V358.267Z" fill="black"/>
<path d="M620.4 323.6C619.067 324.133 618.667 337.733 618.667 385.467V446.667H630.667H642.667V400.933C642.667 375.733 642.267 347.733 641.733 338.933L640.933 322.667L631.467 322.8C626.267 322.8 621.2 323.2 620.4 323.6Z" fill="black"/>
<path d="M509.867 369.6C510.267 394 511.067 421.867 511.467 431.467L512.4 448.933L533.867 448.4C545.6 448.133 563.867 447.6 574.4 447.2L593.333 446.4V435.067V423.733L564.267 424.667L535.067 425.6L534.267 394.533C533.733 377.333 533.333 356.133 533.333 347.333C533.333 324.133 534 325.333 520.267 325.333H508.933L509.867 369.6Z" fill="black"/>
<path d="M819.867 386.267C818.8 419.867 818 447.6 818.267 447.867C818.4 448.133 823.867 448.667 830.533 449.067L842.4 449.733L842.8 426.267C843.333 404 843.467 402.533 846.267 399.733C850.133 395.867 848.933 394.667 870 425.733L886.8 450.667H893.067C896.533 450.667 903.467 451.067 908.4 451.6L917.6 452.4L892.933 417.333L868.267 382.133L894.4 355.467L920.533 328.667L905.2 328.267L890 327.867L877.333 340.933C870.4 348.133 860.133 358.8 854.533 364.667L844.533 375.467L845.067 350.4L845.733 325.333H833.733H821.733L819.867 386.267Z" fill="black"/>
<path d="M452.533 327.733C451.467 328.4 451.733 344.4 453.467 386.667C454.8 418.533 455.867 446.133 456 447.867C456 451.067 456.133 451.067 467.467 450.267C473.733 450 479.067 449.467 479.333 449.2C479.6 448.8 476.8 374.8 474.667 327.6C474.667 326.4 454.533 326.4 452.533 327.733Z" fill="black"/>
<path d="M410.667 329.2L399.467 330L388.667 363.333C382.667 381.6 377.467 397.6 377.067 398.667C376.267 400.533 373.333 394.8 352.133 350.133L344 332.933L330.667 333.6C323.333 334 317.067 334.533 316.667 334.8C316.4 335.2 330.133 363.333 347.333 397.333C377.467 457.467 378.533 459.2 380 455.333C380.933 453.067 391.733 424 404.267 390.667C416.667 357.333 427.2 329.6 427.6 328.933C427.867 328.4 426.8 328.133 425.067 328.267C423.333 328.4 416.933 328.8 410.667 329.2Z" fill="black"/>
<path d="M997.333 335.867C997.333 337.733 995.867 363.333 994 392.533C992.133 421.867 990.667 448 990.667 450.667V455.6L1001.6 456.4C1007.6 456.933 1012.8 456.933 1013.2 456.667C1013.73 456 1015.73 432.4 1015.87 423.067L1016 418.933L1034.4 418.4C1055.6 417.867 1060 416.267 1069.07 406C1081.47 392 1083.07 366.133 1072.53 352.267C1063.73 340.933 1053.07 336.533 1028.67 334.667C994.933 332.133 997.333 332 997.333 335.867ZM1041.33 358.533C1056 361.467 1060.8 380.4 1049.47 391.2C1044.93 395.6 1036.93 396.933 1024.8 395.467L1017.33 394.533L1018 387.6C1018.4 383.733 1018.93 375.467 1019.47 368.933L1020.27 357.333H1027.73C1032 357.467 1038 358 1041.33 358.533Z" fill="black"/>
<path d="M231.333 340.267C223.333 340.933 216.4 341.733 216.133 342.133C215.867 342.4 217.6 369.733 220.133 402.933L224.667 463.333H235.6C241.6 463.2 246.933 462.8 247.467 462.4C247.867 461.867 247.733 453.2 246.933 443.067C246 429.467 246 424.4 247.2 423.733C248 423.2 251.733 422.667 255.6 422.667H262.533L276.933 441.067L291.333 459.6L301.333 458.933C320.667 457.867 320.533 459.6 303.2 436.667C294.8 425.6 288 416.133 288 415.6C288 414.933 289.733 413.067 291.867 411.2C294.133 409.333 297.6 404.4 299.6 400.267C302.8 393.6 303.333 391.067 303.333 380.667C303.333 365.733 299.867 357.2 290.933 349.333C279.467 339.2 266.8 337.333 231.333 340.267ZM273.467 366.4C280 373.733 280.933 382.667 276.133 391.867C273.6 396.4 266.933 398.933 255.2 399.733L244.267 400.4L243.6 395.2C243.067 392.267 242.4 383.867 241.867 376.4L241.067 362.8L246.133 362.267C249.067 361.867 255.467 361.733 260.533 361.867C268.933 362.133 269.867 362.4 273.467 366.4Z" fill="black"/>
<path d="M1106.53 340.267C1106.13 342.533 1096.4 462.133 1096.67 462.4C1096.8 462.533 1102.13 463.2 1108.4 463.733L1119.73 464.8L1120.53 457.333C1120.93 453.333 1121.6 444.8 1122.13 438.267C1122.67 431.867 1123.47 426.4 1124 426C1124.4 425.733 1128.27 425.867 1132.4 426.267L1140 427.067L1150.93 447.067C1157.73 459.333 1162.93 467.333 1164.67 468C1166.13 468.533 1172.67 469.333 1179.07 469.867L1190.93 470.667L1188.27 466.4C1183.2 457.867 1166.67 425.6 1166.67 424.267C1166.67 423.467 1168.8 421.6 1171.33 420C1182 413.467 1188.8 397.067 1187.73 380.8C1186.93 369.6 1183.73 362.533 1176.27 355.733C1170 350.133 1168.13 349.067 1159.6 346.133C1153.2 344 1106.93 338.933 1106.53 340.267ZM1147.87 366.533C1155.47 368 1160 371.6 1162.27 378C1164.8 385.333 1163.33 392.667 1158.13 398.267C1153.33 403.6 1147.6 404.8 1134 403.333L1125.07 402.4L1125.87 392.267C1126.4 386.533 1127.07 378.267 1127.47 373.6L1128.27 365.333H1135.2C1138.93 365.467 1144.67 366 1147.87 366.533Z" fill="black"/>
<path d="M140.933 348C120.533 350.133 103.467 352.133 102.933 352.533C102.267 353.333 113.067 473.333 114 474.4C114.267 474.667 199.067 466.667 199.6 466.267C200 465.733 197.467 444.933 196.8 444.4C196.4 444 182.533 445.067 166 446.667C149.467 448.267 135.6 449.333 135.333 449.067C135.067 448.8 134.4 442.8 133.867 435.733C132.8 420.4 129.467 422.4 161.867 419.333C174.4 418.267 184.667 417.067 184.933 416.8C185.2 416.533 185.067 411.467 184.533 405.467C183.467 392.8 187.2 393.733 153.733 397.067L130.8 399.467L130.133 394.667C129.733 392.133 129.067 386 128.533 381.2L127.733 372.533L152.267 370.133C190.933 366.533 188.133 367.2 187.333 361.467C187.067 358.8 186.4 353.867 186 350.267C185.067 342.8 190.533 343.067 140.933 348Z" fill="black"/>
<path d="M1258 354.8C1235.33 358 1213.33 378 1207.47 400.667C1197.87 437.333 1221.33 473.2 1258.8 479.067C1290.53 484 1321.87 462.667 1329.33 430.8C1330.4 426.4 1330.8 419.333 1330.27 412.533C1328.13 376.4 1294.4 349.6 1258 354.8ZM1281.73 379.467C1289.6 382.133 1298.4 390.533 1302.67 399.333C1305.07 404.533 1305.87 408.267 1305.87 416C1306 428 1304.13 434 1297.47 442.4C1286.27 456.533 1267.73 460.8 1251.73 452.933C1237.47 445.867 1230 433.733 1230.13 417.333C1230.27 388.933 1255.47 370.533 1281.73 379.467Z" fill="black"/>
<path d="M33.3333 359.2C14.2666 363.467 2.66663 376.267 2.66663 393.333C2.66663 413.6 11.4666 422.533 40.4 431.2C55.2 435.733 61.3333 440.667 61.3333 448C61.3333 462.8 39.8666 466.933 15.7333 456.667C13.7333 455.867 12.6666 457.333 9.33329 464.667C7.19996 469.6 5.33329 474 5.33329 474.667C5.33329 476.4 20.1333 481.333 30 482.8C48.8 485.6 68.6666 479.867 78 468.933C87.3333 458.133 88.6666 444 81.8666 429.733C76.8 419.067 71.2 415.733 45.6 407.867C28.9333 402.8 22.5333 393.733 29.3333 384.933C35.3333 377.2 48.4 376.8 69.4666 383.467C71.0666 384 72.4 382 74.9333 374.667L78.4 365.2L73.4666 363.2C60.2666 357.6 46.5333 356.267 33.3333 359.2Z" fill="black"/>
</svg>
