<svg xmlns="http://www.w3.org/2000/svg" version="1.1" xmlns:xlink="http://www.w3.org/1999/xlink" xmlns:svgjs="http://svgjs.dev/svgjs" width="2000" height="1500" viewBox="0 0 2000 1500"><rect width="2000" height="1500" fill="#ffffff"></rect><g transform="matrix(0.75,0,0,0.75,249.0915379989873,477.34399102652935)"><svg viewBox="0 0 396 144" data-background-color="#ffffff" preserveAspectRatio="xMidYMid meet" height="727" width="2000" xmlns="http://www.w3.org/2000/svg" xmlns:xlink="http://www.w3.org/1999/xlink"><g id="tight-bounds" transform="matrix(1,0,0,1,0.23983396826736225,0.00818944003626143)"><svg viewBox="0 0 395.52 143.98315426501537" height="143.98315426501537" width="395.52"><g><svg viewBox="0 0 395.52 143.98315426501537" height="143.98315426501537" width="395.52"><g transform="matrix(1,0,0,1,0,94.6112281419929)"><svg viewBox="0 0 395.52 49.37192612302248" height="49.37192612302248" width="395.52"><g><svg viewBox="0 0 395.52 49.37192612302248" height="49.37192612302248" width="395.52"><g><svg viewBox="0 0 395.52 49.37192612302248" height="49.37192612302248" width="395.52"><g transform="matrix(1,0,0,1,0,0)"><svg width="395.52" viewBox="1.6283111572265625 -38.83232879638672 388.17376708984375 48.45490264892578" height="49.37192612302248" data-palette-color="#0063db"><path d="M24.034-25.055l-2.074 5.732c-1.45-0.593-2.912-1.053-4.384-1.382-1.473-0.328-2.829-0.422-4.069-0.28v0c-1.537 0.175-2.71 0.625-3.519 1.347-0.804 0.716-1.135 1.693-0.994 2.932v0c0.097 0.848 0.515 1.568 1.253 2.162 0.745 0.593 1.678 1.09 2.797 1.492 1.12 0.402 2.273 0.75 3.461 1.045v0c1.091 0.271 2.181 0.617 3.268 1.036 1.088 0.419 2.085 0.983 2.992 1.691 0.905 0.702 1.671 1.621 2.297 2.758 0.619 1.13 1.027 2.56 1.224 4.288v0c0.209 1.828-0.068 3.577-0.83 5.248-0.769 1.671-2.009 3.091-3.721 4.26-1.719 1.169-3.916 1.906-6.592 2.212v0c-1.364 0.156-2.771 0.179-4.219 0.068-1.449-0.116-2.892-0.381-4.328-0.794-1.437-0.42-2.841-0.994-4.213-1.723v0l2.5-5.882c0.918 0.519 1.901 0.957 2.948 1.315 1.048 0.364 2.093 0.617 3.136 0.759 1.044 0.149 1.986 0.176 2.827 0.08v0c0.848-0.097 1.692-0.317 2.532-0.662 0.833-0.343 1.501-0.842 2.003-1.496 0.503-0.648 0.695-1.495 0.575-2.542v0c-0.082-0.715-0.391-1.341-0.929-1.877-0.537-0.529-1.234-0.993-2.091-1.392-0.851-0.399-1.77-0.724-2.758-0.973v0c-1.155-0.298-2.353-0.657-3.596-1.079-1.235-0.416-2.412-0.966-3.53-1.651-1.117-0.678-2.062-1.576-2.834-2.696-0.772-1.12-1.256-2.541-1.452-4.263v0c-0.238-2.086 0.022-3.951 0.78-5.594 0.753-1.636 1.926-2.998 3.52-4.086 1.593-1.094 3.49-1.814 5.692-2.159v0c2.901-0.331 5.295-0.259 7.181 0.217 1.886 0.476 3.602 1.105 5.147 1.889zM34.184 7.033l-3.47-36.054 24.596-2.367 0.66 6.858-17.489 1.683 0.741 7.695 15.478-1.49 0.66 6.858-15.478 1.49 0.749 7.784 18.176-1.749 0.66 6.858zM63.879-32.035l10.949-0.824c2.254-0.17 4.286-0.032 6.098 0.414 1.811 0.439 3.352 1.145 4.622 2.119 1.276 0.967 2.279 2.172 3.01 3.614 0.737 1.442 1.176 3.097 1.316 4.966v0c0.111 1.469-0.001 2.958-0.336 4.467-0.328 1.502-0.945 2.896-1.852 4.181-0.906 1.285-2.149 2.358-3.729 3.219-1.58 0.861-3.58 1.382-5.999 1.564v0l-5.106 0.385 0.864 11.477-7.12 0.536zM72.335-14.801l5.056-0.38c1.077-0.081 1.961-0.328 2.652-0.741 0.697-0.42 1.228-0.921 1.592-1.504 0.37-0.589 0.622-1.193 0.756-1.812 0.134-0.618 0.181-1.19 0.142-1.715v0c-0.03-0.392-0.124-0.887-0.283-1.483-0.165-0.596-0.451-1.19-0.856-1.781-0.406-0.598-0.994-1.082-1.763-1.452-0.763-0.37-1.766-0.509-3.01-0.415v0l-5.106 0.384zM75.923-10.438l8.472-0.828 9.982 13.259-8.296 0.624zM93.026-34.151l8.557-0.462 11.972 25.471-4.178-0.605 8.223-25.732 8.448-0.456-14.462 38.727zM134.09 0.004l-1.438-36.192 7.134-0.283 1.438 36.191zM150.4-0.527l-0.883-36.209 7.138-0.174 0.715 29.321 17.015-0.415 0.168 6.888zM181.782-1.156l-0.371-36.218 7.14-0.073 0.371 36.218zM230.691 0.537l-0.2-0.001-27.269-25.011 2.111 1.197-0.02 22.14-7.24-0.055 0.29-37.639 0.3 0.002 26.679 24.906-1.575-0.702 0.024-22.591 7.19 0.055zM248.184-36.607l-0.418 12.893-0.258 1.813 1.124-1.344 12.236-12.951 9.245 0.3-15.468 15.747 14.345 20.455-9.046-0.293-10.663-15.803-1.827 1.711-0.443 13.673-7.236-0.234 1.173-36.201zM292.291-34.694l10.959 0.681c2.981 0.185 5.472 0.841 7.472 1.968 2 1.133 3.483 2.641 4.448 4.525 0.965 1.884 1.37 4.07 1.215 6.558v0c-0.091 1.47-0.403 2.937-0.935 4.401-0.539 1.463-1.328 2.77-2.368 3.92-1.04 1.151-2.392 2.045-4.055 2.684-1.669 0.631-3.681 0.873-6.037 0.726v0l-5.11-0.318-0.712 11.448-7.126-0.443zM298.311-16.465l5.06 0.314c1.078 0.067 1.988-0.067 2.73-0.401 0.748-0.327 1.344-0.768 1.786-1.321 0.448-0.547 0.781-1.124 0.999-1.732 0.219-0.614 0.342-1.151 0.371-1.61v0c0.022-0.359-0.004-0.845-0.08-1.458-0.082-0.613-0.284-1.24-0.604-1.881-0.32-0.648-0.837-1.208-1.549-1.679-0.705-0.471-1.68-0.746-2.925-0.823v0l-5.11-0.318zM324.026-32.559l10.942 0.902c2.252 0.186 4.238 0.64 5.959 1.364 1.72 0.717 3.131 1.656 4.232 2.818 1.109 1.155 1.911 2.502 2.406 4.041 0.502 1.54 0.676 3.243 0.522 5.11v0c-0.121 1.468-0.465 2.922-1.031 4.36-0.56 1.432-1.387 2.712-2.484 3.839-1.096 1.127-2.492 1.992-4.188 2.595-1.695 0.603-3.752 0.804-6.17 0.605v0l-5.103-0.421-0.946 11.471-7.115-0.586zM329.677-14.213l5.053 0.417c1.076 0.089 1.988-0.017 2.735-0.316 0.754-0.306 1.357-0.718 1.808-1.236 0.458-0.524 0.802-1.081 1.031-1.671 0.229-0.59 0.365-1.147 0.409-1.672v0c0.032-0.392 0.017-0.895-0.047-1.509-0.07-0.614-0.259-1.245-0.566-1.893-0.307-0.654-0.812-1.224-1.515-1.71-0.696-0.485-1.665-0.779-2.907-0.882v0l-5.103-0.421zM332.537-9.341l8.497 0.51 7.781 14.659-8.291-0.684zM352.902-11.852v0c0.261-2.48 0.983-4.777 2.165-6.891 1.176-2.122 2.696-3.949 4.559-5.482 1.858-1.54 3.949-2.681 6.274-3.422 2.318-0.748 4.75-0.988 7.295-0.719v0c2.513 0.265 4.828 1.005 6.946 2.221 2.112 1.208 3.936 2.761 5.471 4.659 1.53 1.891 2.659 3.997 3.387 6.32 0.728 2.316 0.961 4.713 0.7 7.193v0c-0.268 2.546-1 4.879-2.196 6.998-1.195 2.113-2.736 3.921-4.624 5.425-1.894 1.496-3.998 2.602-6.313 3.317-2.32 0.707-4.737 0.929-7.249 0.663v0c-2.546-0.268-4.876-0.99-6.992-2.164-2.121-1.182-3.932-2.7-5.432-4.555-1.506-1.862-2.614-3.949-3.322-6.263-0.714-2.321-0.937-4.754-0.669-7.3zM360.242-11.078v0c-0.168 1.598-0.041 3.12 0.383 4.565 0.424 1.446 1.094 2.753 2.01 3.922 0.916 1.169 2.022 2.12 3.319 2.854 1.291 0.726 2.735 1.173 4.334 1.342v0c1.532 0.161 2.988 0.02 4.368-0.425 1.388-0.45 2.625-1.154 3.712-2.112 1.093-0.957 1.991-2.1 2.694-3.427 0.696-1.328 1.129-2.79 1.297-4.388v0c0.172-1.631 0.047-3.176-0.376-4.635-0.422-1.466-1.074-2.781-1.957-3.947-0.883-1.166-1.963-2.111-3.241-2.835-1.277-0.731-2.698-1.179-4.262-1.344v0c-1.565-0.165-3.048-0.023-4.449 0.426-1.394 0.443-2.654 1.141-3.781 2.095-1.126 0.954-2.039 2.105-2.737 3.452-0.704 1.34-1.143 2.826-1.314 4.457z" opacity="1" transform="matrix(1,0,0,1,0,0)" fill="#0063db" class="undefined-text-0" data-fill-palette-color="primary" id="text-0"></path></svg></g></svg></g></svg></g></svg></g><g transform="matrix(1,0,0,1,143.18265371904167,0)"><svg viewBox="0 0 109.15469256191663 79.88377646705037" height="79.88377646705037" width="109.15469256191663"><g><svg xmlns="http://www.w3.org/2000/svg" xmlns:xlink="http://www.w3.org/1999/xlink" version="1.1" x="0" y="0" viewBox="0 13.407999038696289 100 73.18400573730469" enable-background="new 0 0 100 100" xml:space="preserve" height="79.88377646705037" width="109.15469256191663" class="icon-icon-0" data-fill-palette-color="accent" id="icon-0"><path d="M47.827 28.983c-0.006 0.004-0.011 0.009-0.017 0.014-0.693 0.538-1.357 1.109-1.994 1.712-0.007 0.007-0.014 0.014-0.021 0.021-0.636 0.604-1.243 1.24-1.817 1.904-0.002 0.003-0.005 0.006-0.007 0.009C39.944 37.305 37.5 43.37 37.5 50c0 4.225 0.995 8.22 2.755 11.771 3.619-1.382 6.505-4.399 7.676-8.106C47.658 52.481 47.5 51.258 47.5 50c0-3.161 0.93-6.124 2.504-8.656 0.225-0.362 0.463-0.715 0.714-1.059l0 0c0.709-0.97 1.523-1.856 2.417-2.655 0.076-0.068 0.148-0.14 0.227-0.206 0.213-0.184 0.438-0.356 0.66-0.529 0.174-0.135 0.35-0.27 0.529-0.397 0.191-0.138 0.387-0.271 0.586-0.401 0.241-0.157 0.488-0.306 0.736-0.451 0.163-0.094 0.324-0.192 0.49-0.281 0.419-0.225 0.846-0.437 1.285-0.625 0.004-0.002 0.008-0.004 0.012-0.006l0 0c1.984-0.851 4.159-1.323 6.432-1.323h25.75c5.609 0 10.156-4.478 10.156-10H64.092v-0.003C57.969 23.406 52.327 25.492 47.827 28.983z" fill="#d90000" data-fill-palette-color="accent"></path><path d="M100 66.591H64.092c-0.808 0-1.597-0.08-2.375-0.194-2.033 3.188-4.635 5.979-7.668 8.221 3.078 1.26 6.44 1.963 9.965 1.974H64c2.762 0 5 2.238 5 5v5L100 66.591z" fill="#d90000" data-fill-palette-color="accent"></path><path d="M35.908 33.409c0.808 0 1.597 0.08 2.376 0.194 2.033-3.188 4.634-5.979 7.668-8.22-3.079-1.261-6.441-1.964-9.966-1.975H36c-2.762 0-5-2.238-5-5v-5l-31 20H35.908z" fill="#d90000" data-fill-palette-color="accent"></path><path d="M50.003 72.536c0.749-0.471 1.471-0.978 2.168-1.518 0.008-0.006 0.014-0.012 0.021-0.017 0.691-0.538 1.355-1.108 1.99-1.711 0.008-0.007 0.015-0.014 0.021-0.021 0.636-0.604 1.24-1.237 1.814-1.9 0.004-0.005 0.008-0.011 0.014-0.016 0.574-0.665 1.115-1.358 1.623-2.079 0.002-0.002 0.004-0.005 0.006-0.007 0 0 0 0-0.001 0 3.044-4.324 4.839-9.589 4.839-15.268 0-4.225-0.994-8.22-2.756-11.771-3.619 1.382-6.505 4.399-7.676 8.107 0.273 1.183 0.432 2.406 0.432 3.664 0 3.158-0.928 6.118-2.5 8.648-0.862 1.388-1.924 2.639-3.137 3.723-0.076 0.067-0.148 0.139-0.225 0.204-0.214 0.185-0.438 0.357-0.661 0.53-0.174 0.135-0.348 0.269-0.527 0.396-0.193 0.139-0.39 0.273-0.59 0.403-0.239 0.156-0.483 0.304-0.73 0.447-0.165 0.096-0.327 0.195-0.495 0.285-0.415 0.223-0.838 0.432-1.272 0.618-0.008 0.004-0.016 0.008-0.024 0.012l0 0c-1.984 0.851-4.159 1.323-6.432 1.323H10.157c-5.61 0-10.157 4.478-10.157 10h35.908v0.004c5.174 0 10.004-1.49 14.093-4.058l0 0C50.002 72.537 50.003 72.536 50.003 72.536z" fill="#d90000" data-fill-palette-color="accent"></path></svg></g></svg></g><g></g></svg></g><defs></defs></svg><rect width="395.52" height="143.98315426501537" fill="none" stroke="none" visibility="hidden"></rect></g></svg></g></svg>